<svg width="28" height="28" viewBox="0 0 28 28" fill="none" xmlns="http://www.w3.org/2000/svg">
<path fill-rule="evenodd" clip-rule="evenodd" d="M14 0.25C6.40625 0.25 0.25 6.40625 0.25 14C0.25 21.5938 6.40625 27.75 14 27.75C21.5938 27.75 27.75 21.5938 27.75 14C27.75 6.40625 21.5938 0.25 14 0.25ZM2.75 14C2.75 16.6125 3.64125 19.0175 5.135 20.9275C6.18404 19.5499 7.53737 18.4334 9.08929 17.6654C10.6412 16.8973 12.3497 16.4985 14.0812 16.5C15.7904 16.4984 17.4774 16.8869 19.0137 17.636C20.5499 18.385 21.895 19.4749 22.9462 20.8225C24.0293 19.402 24.7585 17.744 25.0736 15.9857C25.3887 14.2275 25.2805 12.4194 24.7581 10.7112C24.2357 9.00304 23.314 7.44381 22.0694 6.16255C20.8247 4.88128 19.2928 3.91482 17.6005 3.34314C15.9081 2.77145 14.104 2.61096 12.3373 2.87497C10.5707 3.13897 8.89224 3.81986 7.44096 4.86132C5.98968 5.90277 4.80726 7.27484 3.99154 8.86399C3.17581 10.4532 2.75023 12.2137 2.75 14ZM14 25.25C11.4174 25.2539 8.91283 24.3654 6.91 22.735C7.71616 21.5809 8.78917 20.6386 10.0377 19.9884C11.2863 19.3381 12.6735 18.999 14.0812 19C15.4715 18.9989 16.8419 19.3295 18.0787 19.9643C19.3155 20.5991 20.383 21.5198 21.1925 22.65C19.1741 24.3334 16.6282 25.2537 14 25.25Z" fill="white"/>
</svg>
